<?xml version="1.0" standalone="no"?>
<!DOCTYPE svg PUBLIC "-//W3C//DTD SVG 20010904//EN"
 "http://www.w3.org/TR/2001/REC-SVG-20010904/DTD/svg10.dtd">
<svg version="1.0" xmlns="http://www.w3.org/2000/svg"
 width="700.000000pt" height="700.000000pt" viewBox="0 0 700.000000 700.000000"
 preserveAspectRatio="xMidYMid meet">
<metadata>
Created by potrace 1.14, written by Peter Selinger 2001-2017
</metadata>
<g transform="translate(0.000000,700.000000) scale(0.100000,-0.100000)"
fill="#000000" stroke="none">
<path d="M2700 5467 l0 -144 123 -16 c67 -9 182 -24 255 -34 l132 -17 0 -1762
0 -1762 -27 -6 c-16 -3 -113 -15 -218 -26 -104 -11 -207 -23 -227 -26 l-38 -6
0 -139 0 -139 815 0 815 0 0 139 0 138 -232 27 c-128 15 -243 29 -255 32 l-23
4 0 1763 0 1763 223 28 c122 16 237 31 255 34 l32 5 0 143 0 144 -815 0 -815
0 0 -143z"/>
</g>
</svg>
